<svg version="1.1" xmlns="http://www.w3.org/2000/svg" viewBox="312.61 163.68 408.91 453.33"> <path d="M0 0 C1.7638474 1.02425681 3.52820574 2.04763406 5.29296875 3.0703125 C9.34076666 5.42194898 13.38087197 7.78629693 17.41796875 10.15625 C24.24849456 14.15741202 31.12124436 18.08269624 38 22 C47.72162217 27.53918939 57.40895758 33.13375452 67.06689453 38.78344727 C74.32211726 43.02617273 81.59353319 47.23998054 88.875 51.4375 C89.94886963 52.05657227 91.02273926 52.67564453 92.12915039 53.31347656 C96.55350496 55.86322796 100.97852587 58.41182081 105.40380859 60.95996094 C106.53254395 61.6099707 107.6612793 62.25998047 108.82421875 62.9296875 C109.94320557 63.57397705 111.06219238 64.2182666 112.21508789 64.88208008 C115.49250189 66.77213277 118.76583657 68.66911272 122.0390625 70.56640625 C125.68093797 72.67452526 129.33656608 74.74904267 133.0234375 76.77734375 C148.29936627 85.2632412 159.78077088 96.01766124 165.16004944 113.21968079 C167.57782056 122.03482431 167.55573262 130.58524606 167.50170898 139.67260742 C167.50550067 141.50902214 167.51100766 143.34543398 167.51808167 145.18183899 C167.53193988 150.12799557 167.52093609 155.07380054 167.50437045 160.01993728 C167.49042947 165.21709517 167.49699003 170.41423453 167.50050354 175.61140442 C167.50319783 184.33238331 167.48979503 193.05322394 167.46655273 201.77416992 C167.43992293 211.83538777 167.43820682 221.89637499 167.4499411 231.95761603 C167.46074347 241.66886461 167.45451413 251.38003033 167.44038582 261.09127235 C167.43464987 265.21021818 167.43468973 269.32910289 167.43945122 273.44804955 C167.44424582 278.30161625 167.43401705 283.15493236 167.41249657 288.00845146 C167.40696315 289.782485 167.40643146 291.55654278 167.41144943 293.33057785 C167.4560554 311.37103537 164.09704342 326.08383191 151.44140625 339.6484375 C150.63574219 340.42445313 149.83007812 341.20046875 149 342 C148.54004639 342.44899658 148.08009277 342.89799316 147.60620117 343.3605957 C142.11336852 348.41501347 135.67355313 351.82672222 129.1875 355.4375 C127.93911445 356.14030471 126.69123896 356.84401612 125.44384766 357.54858398 C122.88148163 358.99557077 120.31747061 360.43957615 117.75244141 361.88183594 C112.10153459 365.0651034 106.48866788 368.31415368 100.875 371.5625 C98.72661416 372.80347486 96.57817664 374.04436024 94.4296875 375.28515625 C93.36975586 375.89762207 92.30982422 376.51008789 91.21777344 377.14111328 C85.81329355 380.26324605 80.40652588 383.38141204 75 386.5 C72.8333225 387.74998122 70.66665583 388.99998121 68.5 390.25 C64.16666667 392.75 59.83333333 395.25 55.5 397.75 C54.42709717 398.3689917 53.35419434 398.9879834 52.2487793 399.62573242 C50.08621417 400.8733474 47.92361661 402.12090616 45.76098633 403.3684082 C39.17026694 407.17034537 32.58081967 410.97447629 25.9921875 414.7800293 C22.73946829 416.65750382 19.48510686 418.53210435 16.23046875 420.40625 C12.16356745 422.74858322 8.10435421 425.10343449 4.05078125 427.46875 C2.20058257 428.54177313 0.35032531 429.61469524 -1.5 430.6875 C-2.31766846 431.16856201 -3.13533691 431.64962402 -3.9777832 432.14526367 C-19.61055568 441.17391165 -35.15433726 444.55391716 -52.88330078 439.96386719 C-60.51973704 437.76661616 -67.19585923 434.01120725 -74 430 C-75.7638474 428.97574319 -77.52820574 427.95236594 -79.29296875 426.9296875 C-83.34076666 424.57805102 -87.38087197 422.21370307 -91.41796875 419.84375 C-98.24849456 415.84258798 -105.12124436 411.91730376 -112 408 C-121.72162217 402.46081061 -131.40895758 396.86624548 -141.06689453 391.21655273 C-148.32211767 386.97382703 -155.59356897 382.76008204 -162.875 378.5625 C-163.94741943 377.94415283 -165.01983887 377.32580566 -166.12475586 376.6887207 C-171.71292907 373.46781494 -177.303119 370.25043538 -182.89453125 367.03515625 C-188.33556159 363.90553522 -193.77007743 360.76485812 -199.20068359 357.6171875 C-201.66595462 356.19298069 -204.13820575 354.78205968 -206.61328125 353.375 C-223.30513166 343.7854198 -234.57111136 332.12946224 -240.04801941 313.4198761 C-241.6988906 305.78230582 -241.28698971 297.8693507 -241.2746582 290.09448242 C-241.27901038 288.28013398 -241.28419522 286.46578738 -241.29014587 284.65144348 C-241.30349365 279.74221551 -241.30411918 274.83306473 -241.30158257 269.92382216 C-241.30050985 265.81624783 -241.30540401 261.70868892 -241.310188 257.60111791 C-241.32126891 247.90488384 -241.32172877 238.20868851 -241.31567383 228.51245117 C-241.30963659 218.53146491 -241.32194199 208.55061971 -241.3432439 198.5696575 C-241.36089621 189.98081543 -241.36685548 181.39201811 -241.36360615 172.80315858 C-241.36179871 167.682105 -241.36437536 162.56115202 -241.37832069 157.44011497 C-241.39095336 152.62110942 -241.38890375 147.80232267 -241.37590981 142.98332024 C-241.37355616 141.22260207 -241.37623484 139.46186824 -241.38453293 137.70116806 C-241.46447645 119.40842511 -238.34029894 104.17689499 -225.44140625 90.3515625 C-219.27738206 84.4143744 -213.08949519 80.10493426 -205.5625 76 C-203.49655309 74.85307922 -201.43147532 73.70459172 -199.3671875 72.5546875 C-198.31112305 71.9678418 -197.25505859 71.38099609 -196.16699219 70.77636719 C-191.13713716 67.95511949 -186.1619126 65.04256942 -181.1875 62.125 C-169.58110527 55.33025168 -157.93606331 48.60409706 -146.28222656 41.89111328 C-140.85340058 38.76319852 -135.42680719 35.63141552 -130 32.5 C-127.83334417 31.24998121 -125.6666775 29.99998122 -123.5 28.75 C-122.4275 28.13125 -121.355 27.5125 -120.25 26.875 C-117 25 -113.75 23.125 -110.5 21.25 C-109.42637207 20.63044434 -108.35274414 20.01088867 -107.24658203 19.37255859 C-105.09185082 18.12975604 -102.93658185 16.88788535 -100.78076172 15.64697266 C-95.76601765 12.75895976 -90.75665599 9.8628416 -85.76715088 6.93145752 C-84.01800883 5.90442442 -82.26709413 4.88048058 -80.515625 3.85742188 C-78.33238313 2.58092965 -76.15241646 1.29881062 -73.9765625 0.00976562 C-48.12667689 -15.06378236 -25.66870734 -15.13233021 0 0 Z " fill="#C61B00" transform="translate(554,175)"></path> <path d="M0 0 C3.34136298 2.47236382 5.6528381 5.2497383 8.1328125 8.578125 C8.5865625 7.52625 9.0403125 6.474375 9.5078125 5.390625 C12.51461713 0.30695532 16.51876068 -1.86318248 22.1328125 -3.421875 C30.94640554 -4.62629793 40.61089348 -4.7125731 48.1328125 0.578125 C50.01269912 2.15437198 51.52415324 3.71000457 53.1328125 5.578125 C53.8134375 4.65 54.4940625 3.721875 55.1953125 2.765625 C57.72802974 -0.68808033 61.10896528 -2.23545019 65.1328125 -3.421875 C68.08323622 -3.86696867 70.96448641 -3.94620698 73.9453125 -3.921875 C74.73558838 -3.91760498 75.52586426 -3.91333496 76.34008789 -3.90893555 C82.774177 -3.72204781 87.98969753 -2.51171588 93.1328125 1.578125 C96.06575585 5.02864658 96.23546742 7.17862826 96.1328125 11.578125 C93.88387296 11.68636273 91.63343675 11.76382145 89.3828125 11.828125 C87.50335937 11.89773438 87.50335937 11.89773438 85.5859375 11.96875 C81.51427788 11.50815502 80.79380648 10.51439421 78.1328125 7.578125 C75.35139207 7.07056653 72.9870896 7.38783986 70.1328125 7.578125 C69.8028125 8.898125 69.4728125 10.218125 69.1328125 11.578125 C71.90320182 13.42505121 73.0038415 13.90390749 76.1171875 14.4375 C76.88804687 14.58445312 77.65890625 14.73140625 78.453125 14.8828125 C80.05507638 15.17641774 81.65929181 15.45796252 83.265625 15.7265625 C89.20620716 16.89099555 93.0346248 19.08700245 97.1328125 23.578125 C99.10832253 27.52914507 98.82477478 32.435543 97.484375 36.5859375 C94.48978069 42.49834165 89.8854861 44.49864516 83.9453125 46.828125 C74.69605872 48.64765033 66.46621772 48.2322532 58.1328125 43.578125 C55.5078125 41.328125 55.5078125 41.328125 54.1328125 39.578125 C51.65191114 40.7231564 49.60612009 41.96117403 47.3828125 43.578125 C39.98257804 48.13211544 31.04061838 48.82908235 22.60546875 47.04296875 C16.70766986 45.24713315 12.61417154 42.80016356 9.1328125 37.578125 C9.1328125 36.588125 9.1328125 35.598125 9.1328125 34.578125 C8.4728125 34.578125 7.8128125 34.578125 7.1328125 34.578125 C6.86726562 35.17496094 6.60171875 35.77179688 6.328125 36.38671875 C3.43068203 41.69869753 -1.95672872 45.28008222 -7.640625 47.1015625 C-15.60664194 48.80656963 -21.64141509 47.82030392 -28.7734375 43.96484375 C-30.78506728 42.63251432 -32.36896932 41.47035511 -33.8671875 39.578125 C-33.59785492 36.34613409 -32.89190179 33.65226786 -31.8671875 30.578125 C-31.04717954 23.98291814 -31.70381149 19.68031035 -35.7734375 14.3671875 C-36.8671875 12.578125 -36.8671875 12.578125 -36.8671875 8.578125 C-28.7089666 -4.47502843 -13.32722745 -7.65325933 0 0 Z " fill="#FDF9F9" transform="translate(567.8671875,365.421875)"></path> <path d="M0 0 C7.27632502 -0.09311365 14.55251936 -0.16397273 21.82932186 -0.20724869 C25.2091028 -0.22803026 28.58847297 -0.25617154 31.96801758 -0.30175781 C35.8629015 -0.35050659 39.75720944 -0.37302285 43.65234375 -0.390625 C44.8526976 -0.41127014 46.05305145 -0.43191528 47.28977966 -0.45318604 C54.83468218 -0.45518471 61.87529883 0.12376635 67.61582947 5.51849365 C70.33278276 8.67186428 71.89890516 10.98905164 72.3125 15.125 C71.94349921 19.70060984 70.75654534 23.29908265 68 27 C65.859375 28.23046875 65.859375 28.23046875 64 29 C64 29.66 64 30.32 64 31 C64.556875 31.04125 65.11375 31.0825 65.6875 31.125 C69.67030477 32.63200721 72.12992356 36.25984712 74 40 C74.70136853 47.07380257 74.98933359 53.51408822 70.6328125 59.4140625 C66.1774116 63.74155716 59.96592338 66.1320298 53.80395508 66.11352539 C52.96331009 66.11344986 52.1226651 66.11337433 51.25654602 66.11329651 C50.35333115 66.10813522 49.45011627 66.10297394 48.51953125 66.09765625 C47.59154221 66.0962413 46.66355316 66.09482635 45.70744324 66.09336853 C42.74242942 66.08776937 39.77749101 66.07521704 36.8125 66.0625 C34.80273547 66.05748489 32.79296975 66.052922 30.78320312 66.04882812 C25.85543968 66.03780021 20.92773263 66.02053617 16 66 C15.505 62.535 15.505 62.535 15 59 C14.59910156 59.39832031 14.19820313 59.79664063 13.78515625 60.20703125 C6.96115687 66.56681298 0.00513736 68.65585426 -9.29296875 68.34375 C-15.45168844 67.56169036 -20.2003836 65.23165382 -24.4375 60.6875 C-29.33802134 54.28017016 -29.21219344 47.74506071 -29 40 C-23.72 40 -18.44 40 -13 40 C-12.83723958 42.24609375 -12.67447917 44.4921875 -12.51171875 46.73828125 C-11.90385404 49.42495048 -11.24482376 50.42030921 -9 52 C-5.35458155 51.76522801 -5.35458155 51.76522801 -2 51 C-1.04482467 48.134474 -0.84945802 46.23478679 -0.79467773 43.25317383 C-0.77473251 42.29240433 -0.75478729 41.33163483 -0.73423767 40.3417511 C-0.71752518 39.30729355 -0.70081268 38.272836 -0.68359375 37.20703125 C-0.66281265 36.14586594 -0.64203156 35.08470062 -0.62062073 33.99137878 C-0.55518762 30.59848563 -0.49626907 27.2055145 -0.4375 23.8125 C-0.39430886 21.51366378 -0.35069438 19.21483547 -0.30664062 16.91601562 C-0.1995126 11.2774264 -0.09773449 5.63875944 0 0 Z " fill="#FEFCFC" transform="translate(459,345)"></path> <path d="M0 0 C5.01639444 2.85782471 8.46520798 7.03370164 10.6875 12.375 C11.62886225 19.42427077 10.97882034 25.5830339 6.6875 31.375 C3.27211719 34.95475952 -0.64872366 38.03143086 -5.64453125 38.67578125 C-12.58381935 38.70856529 -17.52007751 37.71284209 -23 33.125 C-27.78590481 27.43365374 -30.09886035 23.35496574 -29.7578125 15.86328125 C-28.55638974 9.15006812 -24.03543207 4.71734405 -18.9609375 0.50390625 C-13.58057427 -3.18075008 -5.71792553 -2.61980999 0 0 Z " fill="#FEFBFB" transform="translate(486.3125,439.625)"></path> <path d="M0 0 C5.13377279 2.9029683 8.6089246 6.66488961 10.80859375 12.1640625 C11.9043132 17.68480282 10.4708464 22.29856627 7.80859375 27.1640625 C4.28658376 31.22792018 1.41234182 33.85219295 -3.99609375 34.5 C-10.2301489 34.57931368 -14.39458711 34.60112021 -19.19140625 30.1640625 C-23.9478022 24.89346158 -24.55074273 20.80143863 -24.46875 13.88671875 C-23.93219824 8.61944304 -20.9221006 5.69070865 -17.12890625 2.3515625 C-12.01839544 -1.45413704 -6.01564595 -2.29473838 0 0 Z " fill="#FEFBFA" transform="translate(433.19140625,434.8359375)"></path> <path d="M0 0 C5.00230198 2.45567552 8.49851535 5.9970307 11 11 C11.54099901 17.27558851 10.75004792 21.82791556 7 27 C1.76991503 31.16272069 -2.32858227 32.55595148 -9 32 C-13.85321811 30.1357158 -17.10499583 27.34250625 -20 23 C-21.72579972 17.82260085 -21.42122173 13.46188718 -19.9375 8.3125 C-15.25227204 0.30227156 -9.03389861 -1.47380823 0 0 Z " fill="#FEFBFA" transform="translate(393,404)"></path> <path d="M0 0 C3.3076344 2.1289811 6.22312783 4.44625567 8 8 C8.52657873 13.28305214 8.64191122 17.66862857 6.3125 22.5 C2.6369874 26.47352714 -0.01806759 28.15561677 -5.4375 28.4375 C-11.17362223 28.22787427 -14.204014 25.60693484 -18.375 21.875 C-20.7882742 17.60536102 -20.74604239 13.79159187 -20 9 C-17.95237278 4.57712521 -15.2933935 1.82154017 -10.98828125 -0.36328125 C-7.1573003 -1.59009833 -3.77999121 -1.28439842 0 0 Z " fill="#FDFAFA" transform="translate(388,361)"></path> <path d="M0 0 C4.56005984 1.86547902 6.71582225 4.68544202 9 9 C9.66067786 12.96406718 9.20144076 14.61950078 7.3125 18.1875 C3.79307746 22.46787877 1.59515954 23.79744006 -3.9375 24.5 C-8.70314808 24.31982427 -10.76251637 22.39164952 -14 19 C-16.55550471 15.51522085 -16.57216273 12.21970013 -16 8 C-11.74604444 1.41028357 -7.93961882 -0.82608751 0 0 Z " fill="#FDF9F9" transform="translate(408,323)"></path> <path d="M0 0 C0.99 0.66 1.98 1.32 3 2 C3 2.99 3 3.98 3 5 C7.62 5 12.24 5 17 5 C17.84635417 6.953125 18.69270833 8.90625 19.5390625 10.859375 C23.43949716 16.57445038 29.31754094 17.86090114 35.6875 19.125 C43.6402027 20.76013514 43.6402027 20.76013514 47 23 C47.3125 25.5 47.3125 25.5 47 28 C44.48987037 30.51012963 43.53194763 30.29721609 40.0625 30.3125 C38.74958984 30.33763672 38.74958984 30.33763672 37.41015625 30.36328125 C35 30 35 30 33.18359375 28.73046875 C32 27 32 27 32 23 C28.04 23 24.08 23 20 23 C19.505 21.7625 19.01 20.525 18.5 19.25 C16.47243889 15.28576845 14.61812322 13.54491905 10.5546875 11.796875 C6.17205635 10.42981574 1.68913825 9.60256688 -2.828125 8.80859375 C-6.00128154 7.9996733 -7.75053073 7.36639713 -10 5 C-10 3.68 -10 2.36 -10 1 C-6.87293041 -0.5635348 -3.42017557 -0.39958487 0 0 Z " fill="#C8260C" transform="translate(603,372)"></path> <path d="M0 0 C3.15954305 2.54137159 4.71540886 4.14622659 6 8 C6.54080383 14.04244275 6.39809157 18.77216681 3 24 C0.64141372 26.35858628 -0.07631948 26.36946499 -3.3125 26.5 C-6.99346541 26.37532214 -7.92313055 26.05490675 -11.0625 23.8125 C-14.42200131 18.92489219 -13.79135116 12.61788032 -13 7 C-10.47860441 0.5733731 -6.63700476 -0.67494964 0 0 Z " fill="#C72005" transform="translate(557,374)"></path> <path d="M0 0 C3.6578218 2.03993908 5.66946174 3.50419262 8 7 C8.4606067 11.97455239 8.16781812 15.06753613 5 19 C2.07104403 21.35943675 0.25318497 21.96835188 -3.5 22.4375 C-7.61647408 21.92294074 -9.13461399 20.94725418 -12 18 C-14.28853994 14.73065722 -14.47162218 11.9301848 -14 8 C-12.34976991 4.93528698 -10.943924 2.69221093 -8.125 0.625 C-5.18891172 -0.23855538 -3.05485074 -0.36658209 0 0 Z " fill="#FDF8F7" transform="translate(443,306)"></path> <path d="M0 0 C2.72977064 -0.08126109 5.4571017 -0.14061663 8.1875 -0.1875 C9.34088867 -0.22520508 9.34088867 -0.22520508 10.51757812 -0.26367188 C15.2172263 -0.32418237 18.13604564 0.02137887 22 3 C23 4 23 4 23.3125 7.3125 C23 11 23 11 21.125 13.375 C17.00576965 16.52499968 13.37570546 16.11526718 8.375 16.0625 C7.57320313 16.05798828 6.77140625 16.05347656 5.9453125 16.04882812 C3.96350994 16.03703168 1.98174567 16.01909605 0 16 C0 10.72 0 5.44 0 0 Z " fill="#C8250B" transform="translate(493,382)"></path> <path d="M0 0 C3.03798467 2.59340154 3.86323667 4.06219433 4.4375 8 C3.93911153 11.41752096 3.11569184 13.27982477 1 16 C-2.20937409 18.32402951 -5.11506021 18.47570691 -9 18 C-11.69990662 16.20006226 -13.5418865 14.916227 -15 12 C-15.39447548 7.81855989 -15.45035186 5.69053952 -13.125 2.125 C-9.09689299 -1.90310701 -5.29670138 -1.36415933 0 0 Z " fill="#FDF7F6" transform="translate(484,303)"></path> <path d="M0 0 C2.39652528 -0.08139142 4.79025436 -0.14067009 7.1875 -0.1875 C7.86103516 -0.21263672 8.53457031 -0.23777344 9.22851562 -0.26367188 C13.6653016 -0.32860045 16.55673756 0.12293368 20 3 C20.5 6.5 20.5 6.5 20 10 C18.47324305 12.02742844 17.62022289 12.88889034 15.09887695 13.34057617 C14.40238037 13.32486572 13.70588379 13.30915527 12.98828125 13.29296875 C12.23095703 13.28330078 11.47363281 13.27363281 10.69335938 13.26367188 C9.51483398 13.2259668 9.51483398 13.2259668 8.3125 13.1875 C7.11657227 13.16719727 7.11657227 13.16719727 5.89648438 13.14648438 C3.93070033 13.11117089 1.96526418 13.05736447 0 13 C0 8.71 0 4.42 0 0 Z " fill="#C82309" transform="translate(493,358)"></path> <path d="M0 0 C1.485 0.86625 1.485 0.86625 3 1.75 C7.89476391 4.24139961 13.02647543 5.36982952 18.36328125 6.51660156 C22.23399189 7.38732501 25.04158283 8.30845036 28 11 C27.625 13.4375 27.625 13.4375 27 16 C23.54924222 17.72537889 19.7732483 17.49595093 16 17 C13.4375 15.1875 13.4375 15.1875 12 13 C12 12.01 12 11.02 12 10 C7.71 10 3.42 10 -1 10 C-0.67 6.7 -0.34 3.4 0 0 Z " fill="#C72107" transform="translate(579,385)"></path> </svg>