<svg version="1.1" id="Layer_1" xmlns="http://www.w3.org/2000/svg" xmlns:xlink="http://www.w3.org/1999/xlink" x="0px" y="0px"
	 width="100%" viewBox="0 0 1920 1280" enable-background="new 0 0 1920 1280" xml:space="preserve">
<path fill="none" opacity="1.000000" stroke="none" 
	d="
M1028.000000,1281.000000 
	C685.333435,1281.000000 343.166870,1281.000000 1.000230,1281.000000 
	C1.000153,854.333557 1.000153,427.667114 1.000077,1.000516 
	C640.999573,1.000344 1280.999146,1.000344 1920.999023,1.000172 
	C1920.999390,427.666138 1920.999390,854.332275 1920.999756,1280.999268 
	C1623.500000,1281.000000 1326.000000,1281.000000 1028.000000,1281.000000 
M1172.257202,1012.786682 
	C1187.839478,1003.908997 1201.164429,992.728943 1210.286743,976.910278 
	C1260.006714,890.692505 1309.824463,804.531067 1359.605591,718.348511 
	C1364.766602,709.413879 1369.745605,700.369324 1375.096558,691.550232 
	C1384.154663,676.621094 1388.048462,660.542542 1388.167236,643.075928 
	C1388.281494,626.264221 1386.263550,610.097534 1377.799927,595.410950 
	C1321.790649,498.220825 1266.069458,400.860229 1209.280518,304.126892 
	C1191.474243,273.796112 1162.836914,257.485138 1127.632446,257.261169 
	C1016.320190,256.552979 904.997620,256.552429 793.685303,257.261322 
	C758.454285,257.485687 729.838013,273.900665 712.036072,304.201935 
	C656.311707,399.051971 601.881836,494.661682 546.617065,589.783325 
	C535.547607,608.836060 531.484009,628.985779 533.236389,650.542419 
	C534.309875,663.748291 537.601257,676.423828 544.320862,688.049988 
	C599.454163,783.441284 654.643860,878.800110 709.590393,974.298889 
	C717.783447,988.538696 728.543518,999.980957 742.287292,1008.651855 
	C758.896851,1019.130920 776.721069,1025.168335 796.792969,1025.120972 
	C905.109619,1024.865479 1013.427551,1024.868164 1121.744141,1025.131348 
	C1139.542114,1025.174561 1156.024658,1021.474670 1172.257202,1012.786682 
z"/>
<path fill="#68BD45" opacity="1.000000" stroke="none" 
	d="
M1171.916870,1012.930908 
	C1156.024658,1021.474670 1139.542114,1025.174561 1121.744141,1025.131348 
	C1013.427551,1024.868164 905.109619,1024.865479 796.792969,1025.120972 
	C776.721069,1025.168335 758.896851,1019.130920 742.287292,1008.651855 
	C728.543518,999.980957 717.783447,988.538696 709.590393,974.298889 
	C654.643860,878.800110 599.454163,783.441284 544.320862,688.049988 
	C537.601257,676.423828 534.309875,663.748291 533.236389,650.542419 
	C531.484009,628.985779 535.547607,608.836060 546.617065,589.783325 
	C601.881836,494.661682 656.311707,399.051971 712.036072,304.201935 
	C729.838013,273.900665 758.454285,257.485687 793.685303,257.261322 
	C904.997620,256.552429 1016.320190,256.552979 1127.632446,257.261169 
	C1162.836914,257.485138 1191.474243,273.796112 1209.280518,304.126892 
	C1266.069458,400.860229 1321.790649,498.220825 1377.799927,595.410950 
	C1386.263550,610.097534 1388.281494,626.264221 1388.167236,643.075928 
	C1388.048462,660.542542 1384.154663,676.621094 1375.096558,691.550232 
	C1369.745605,700.369324 1364.766602,709.413879 1359.605591,718.348511 
	C1309.824463,804.531067 1260.006714,890.692505 1210.286743,976.910278 
	C1201.164429,992.728943 1187.839478,1003.908997 1171.916870,1012.930908 
M1151.494019,760.991699 
	C1177.811401,723.401917 1192.075684,681.614258 1193.800049,635.835999 
	C1194.351807,621.187866 1193.324219,606.361145 1191.630981,591.777344 
	C1189.457520,573.059753 1184.117432,554.987366 1176.995728,537.497009 
	C1160.390381,496.716156 1134.340210,463.234924 1099.101562,436.893890 
	C1089.280640,429.552612 1078.546265,429.137817 1067.428955,433.438995 
	C1056.574097,437.638519 1044.714722,455.363770 1050.870850,470.295135 
	C1053.625122,476.975403 1057.492310,482.347565 1063.111816,486.895172 
	C1120.688843,533.490051 1143.038940,593.173828 1128.000000,665.883484 
	C1121.002319,699.715210 1103.662964,728.276001 1078.676392,752.128235 
	C1048.608398,780.831360 1012.364014,796.036743 971.362671,799.798523 
	C956.192017,801.190369 940.878845,799.847290 925.785217,796.840088 
	C826.361511,777.031189 765.967041,678.777039 790.584412,583.037720 
	C800.785767,543.363831 822.555664,511.355194 855.109070,486.557404 
	C867.932495,476.789124 869.596619,465.756378 865.921509,452.366547 
	C860.335510,432.014557 835.567810,424.407623 818.557190,437.356293 
	C761.591248,480.719482 730.704529,538.705811 724.216187,609.600220 
	C722.308411,630.444580 723.883484,651.475220 728.383667,672.078552 
	C743.733948,742.358704 782.542542,795.601379 844.867981,831.516357 
	C874.097900,848.360107 905.965515,857.719849 939.334595,860.640686 
	C955.722839,862.075195 972.614990,861.115662 988.973389,858.940552 
	C1056.889282,849.909607 1110.773315,816.900024 1151.494019,760.991699 
M926.112305,638.034302 
	C927.075562,640.153076 927.885132,642.358826 929.027100,644.376404 
	C936.096436,656.866516 951.891541,664.456238 964.347595,661.432678 
	C983.918762,656.681946 993.831848,644.092590 993.838013,623.810181 
	C993.858398,556.162842 993.850464,488.515472 993.825684,420.868103 
	C993.824890,418.546326 993.627258,416.213165 993.355896,413.904755 
	C991.082031,394.563019 975.735474,381.842682 956.004883,382.903961 
	C938.375732,383.852264 924.617188,399.159607 924.612366,417.940704 
	C924.594360,487.587494 924.586487,557.234253 924.661316,626.880981 
	C924.665039,630.332092 925.484497,633.782349 926.112305,638.034302 
z"/>
<path fill="#FFFFFE" opacity="1.000000" stroke="none" 
	d="
M1151.275879,761.277344 
	C1110.773315,816.900024 1056.889282,849.909607 988.973389,858.940552 
	C972.614990,861.115662 955.722839,862.075195 939.334595,860.640686 
	C905.965515,857.719849 874.097900,848.360107 844.867981,831.516357 
	C782.542542,795.601379 743.733948,742.358704 728.383667,672.078552 
	C723.883484,651.475220 722.308411,630.444580 724.216187,609.600220 
	C730.704529,538.705811 761.591248,480.719482 818.557190,437.356293 
	C835.567810,424.407623 860.335510,432.014557 865.921509,452.366547 
	C869.596619,465.756378 867.932495,476.789124 855.109070,486.557404 
	C822.555664,511.355194 800.785767,543.363831 790.584412,583.037720 
	C765.967041,678.777039 826.361511,777.031189 925.785217,796.840088 
	C940.878845,799.847290 956.192017,801.190369 971.362671,799.798523 
	C1012.364014,796.036743 1048.608398,780.831360 1078.676392,752.128235 
	C1103.662964,728.276001 1121.002319,699.715210 1128.000000,665.883484 
	C1143.038940,593.173828 1120.688843,533.490051 1063.111816,486.895172 
	C1057.492310,482.347565 1053.625122,476.975403 1050.870850,470.295135 
	C1044.714722,455.363770 1056.574097,437.638519 1067.428955,433.438995 
	C1078.546265,429.137817 1089.280640,429.552612 1099.101562,436.893890 
	C1134.340210,463.234924 1160.390381,496.716156 1176.995728,537.497009 
	C1184.117432,554.987366 1189.457520,573.059753 1191.630981,591.777344 
	C1193.324219,606.361145 1194.351807,621.187866 1193.800049,635.835999 
	C1192.075684,681.614258 1177.811401,723.401917 1151.275879,761.277344 
z"/>
<path fill="#FFFFFF" opacity="1.000000" stroke="none" 
	d="
M926.018188,637.633667 
	C925.484497,633.782349 924.665039,630.332092 924.661316,626.880981 
	C924.586487,557.234253 924.594360,487.587494 924.612366,417.940704 
	C924.617188,399.159607 938.375732,383.852264 956.004883,382.903961 
	C975.735474,381.842682 991.082031,394.563019 993.355896,413.904755 
	C993.627258,416.213165 993.824890,418.546326 993.825684,420.868103 
	C993.850464,488.515472 993.858398,556.162842 993.838013,623.810181 
	C993.831848,644.092590 983.918762,656.681946 964.347595,661.432678 
	C951.891541,664.456238 936.096436,656.866516 929.027100,644.376404 
	C927.885132,642.358826 927.075562,640.153076 926.018188,637.633667 
z"/>
</svg>